<svg version="1.1" id="Layer_1" xmlns="http://www.w3.org/2000/svg" xmlns:xlink="http://www.w3.org/1999/xlink" x="0px" y="0px"
	 width="100%" viewBox="0 0 352 320" enable-background="new 0 0 352 320" xml:space="preserve">
<path fill="#000000" opacity="1.000000" stroke="none" 
	d="
M232.684784,52.041725 
	C261.147675,63.391167 273.727539,102.538109 245.080856,129.781143 
	C245.629669,131.461533 247.342941,131.570755 248.587662,132.222183 
	C271.505432,144.216064 285.814575,162.816681 289.769653,188.381653 
	C291.306244,198.313934 290.490723,208.669128 290.125977,218.809341 
	C289.965637,223.267075 286.070648,224.406464 282.030609,224.400894 
	C268.867737,224.382751 255.704819,224.395584 242.541916,224.395538 
	C228.379303,224.395477 214.216675,224.411423 200.054108,224.385849 
	C193.718704,224.374405 190.247025,221.777100 190.122696,217.073090 
	C189.998886,212.389664 193.388824,209.274261 199.692322,209.136688 
	C210.684006,208.896774 221.683960,209.025970 232.680450,209.018417 
	C245.176865,209.009842 257.674469,208.924362 270.169006,209.079788 
	C274.148315,209.129272 275.682709,207.924759 275.739288,203.664093 
	C276.164978,171.595963 256.727783,146.733200 225.455063,140.968430 
	C206.044754,137.390381 188.927475,143.296631 174.340912,156.535431 
	C173.601501,157.206528 172.926575,157.948257 172.212952,158.648239 
	C167.784531,162.991989 163.393845,163.514954 160.052505,160.100220 
	C156.578415,156.549820 157.023300,152.572067 161.444122,147.864471 
	C168.487839,140.363846 177.041702,134.969543 186.665695,130.342773 
	C167.294907,110.118324 163.469177,88.374725 180.462494,65.490860 
	C192.092178,49.829895 212.491699,45.055187 232.684784,52.041725 
M187.104263,104.289925 
	C192.083221,116.928040 203.056625,124.738144 215.735321,124.667511 
	C227.925339,124.599609 239.375885,116.763474 243.724854,105.512993 
	C248.308380,93.655769 245.314331,80.430016 236.154709,72.072670 
	C226.429749,63.199512 211.710159,61.788197 200.373947,68.193810 
	C188.985733,74.628784 182.054596,90.134514 187.104263,104.289925 
z"/>
<path fill="#000000" opacity="1.000000" stroke="none" 
	d="
M72.776733,142.136490 
	C69.552734,139.486115 68.423454,136.374100 68.670319,132.611084 
	C68.980774,127.878593 68.174713,123.081787 69.200974,118.291336 
	C71.874527,118.260254 73.409248,119.950012 75.114845,121.136436 
	C106.548485,143.002045 137.954803,164.906937 169.366486,186.804123 
	C170.049500,187.280228 170.742249,187.744019 171.405746,188.246201 
	C180.240372,194.932526 180.448883,204.030731 171.397186,210.579041 
	C154.807617,222.580505 137.982071,234.256775 121.214043,246.010300 
	C105.673347,256.903564 90.086227,267.730774 74.496902,278.554413 
	C73.064911,279.548645 71.837784,281.183685 69.025490,280.481873 
	C68.639412,274.245148 68.125626,267.853119 69.337570,261.499146 
	C69.974785,258.158386 72.843826,256.388153 75.471138,254.574707 
	C100.408981,237.361969 125.339470,220.138580 150.267792,202.912048 
	C151.601044,201.990707 152.895874,201.013779 154.934128,199.537094 
	C127.260979,180.220093 100.157974,161.301071 72.776733,142.136490 
z"/>
<path fill="#000000" opacity="1.000000" stroke="none" 
	d="
M114.549393,207.144867 
	C109.905640,207.806244 106.326279,206.249222 102.950844,203.908188 
	C92.437569,196.616577 81.889709,189.374756 71.389427,182.064560 
	C67.062454,179.052139 66.034859,168.375015 69.689117,164.587204 
	C72.909386,161.249237 76.069000,162.916397 79.069290,164.973740 
	C93.320137,174.745667 107.555466,184.540451 121.757919,194.382507 
	C123.615250,195.669601 125.932594,196.487274 127.231277,199.287491 
	C123.693344,202.658035 119.676727,205.374741 114.549393,207.144867 
z"/>
</svg>